<svg width="40" height="40" viewBox="0 0 40 40" fill="none" xmlns="http://www.w3.org/2000/svg">
<path fill-rule="evenodd" clip-rule="evenodd" d="M22.1528 0.143315C31.4172 1.076 38.9307 8.46467 39.879 17.5777C41.2651 30.0597 30.5418 40.6058 17.849 39.2432C8.58454 38.3105 1.0709 30.9218 0.122575 21.8111C-1.19043 10.0434 8.21985 0 19.9644 0C20.6717 0 21.3789 0.0682451 22.0863 0.13649L22.1528 0.143315ZM21.4233 36.5179C29.7394 35.8719 36.4506 29.2703 37.107 21.0923C37.9824 10.6895 29.1557 2.00868 18.5785 2.87084C10.2624 3.51462 3.55118 10.1162 2.89461 18.2942C2.09216 28.2671 10.0436 36.5885 19.9644 36.5885C20.475 36.5885 20.9127 36.5885 21.4233 36.5179ZM34.2619 18.2942C34.2593 18.2692 34.2645 18.2465 34.2619 18.2214V18.2942ZM20.0371 5.66662C27.4523 5.66662 33.4987 11.1512 34.2619 18.2214H16.4627V21.0923H34.2619C33.5324 28.1943 27.4048 33.7176 20.0371 33.7176C11.794 33.7176 5.22873 26.9022 5.73929 18.7242C6.24999 11.9088 11.794 6.31267 18.7239 5.73941C19.1617 5.66662 19.5993 5.66662 20.0371 5.66662ZM20.5084 10.5871C20.2736 10.8419 20.103 11.1535 20.0371 11.4788C19.8182 12.6981 20.7666 13.7741 22.0066 13.7741H22.3713C22.7841 13.6922 23.1735 13.4739 23.4601 13.1554C23.6802 12.912 23.8399 12.6094 23.9033 12.2682C24.1222 10.9033 22.955 9.68398 21.569 9.97061C21.1696 10.048 20.7922 10.2777 20.5084 10.5871Z" fill="#FF8200"/>
</svg>
